<?xml version="1.0" encoding="UTF-8" standalone="no" ?>
<!DOCTYPE svg PUBLIC "-//W3C//DTD SVG 1.1//EN" "http://www.w3.org/Graphics/SVG/1.1/DTD/svg11.dtd">
<svg xmlns="http://www.w3.org/2000/svg" xmlns:xlink="http://www.w3.org/1999/xlink" version="1.1" width="800" height="800" viewBox="0 0 800 800" xml:space="preserve">
<desc>Created with Fabric.js 3.6.6</desc>
<defs>
</defs>
<g transform="matrix(43.78 0 0 43.78 509.61 401.89)"  >
<path style="stroke: none; stroke-width: 1; stroke-dasharray: none; stroke-linecap: butt; stroke-dashoffset: 0; stroke-linejoin: miter; stroke-miterlimit: 4; fill: rgb(0,0,0); fill-rule: nonzero; opacity: 1;"  transform=" translate(-12.5, -12)" d="M 18 7 H 15.79 a 5.49 5.49 0 0 0 -1 -2 H 18 a 1 1 0 0 0 0 -2 H 7 A 1 1 0 0 0 7 5 h 3.5 a 3.5 3.5 0 0 1 3.15 2 H 7 A 1 1 0 0 0 7 9 h 7 a 3.5 3.5 0 0 1 -3.45 3 H 7 a 0.7 0.7 0 0 0 -0.14 0 a 0.65 0.65 0 0 0 -0.2 0 a 0.69 0.69 0 0 0 -0.19 0.1 l -0.12 0.07 l 0 0 a 0.75 0.75 0 0 0 -0.14 0.17 a 1.1 1.1 0 0 0 -0.09 0.14 a 0.61 0.61 0 0 0 0 0.18 A 0.65 0.65 0 0 0 6 13 s 0 0 0 0 a 0.7 0.7 0 0 0 0 0.14 a 0.65 0.65 0 0 0 0 0.2 a 0.69 0.69 0 0 0 0.1 0.19 s 0 0.08 0.07 0.12 l 6 7 a 1 1 0 0 0 1.52 -1.3 L 9.18 14 H 10.5 A 5.5 5.5 0 0 0 16 9 h 2 a 1 1 0 0 0 0 -2 Z" stroke-linecap="round" />
</g>
</svg>