<?xml version="1.0" encoding="utf-8"?><!-- Uploaded to: SVG Repo, www.svgrepo.com, Generator: SVG Repo Mixer Tools -->
<svg width="800px" height="800px" viewBox="0 0 15 15" fill="none" xmlns="http://www.w3.org/2000/svg">
<path d="M5 5.5C5 4.11929 6.11929 3 7.5 3C8.88071 3 10 4.11929 10 5.5C10 6.88071 8.88071 8 7.5 8C6.11929 8 5 6.88071 5 5.5Z" fill="#000000"/>
<path fill-rule="evenodd" clip-rule="evenodd" d="M7.5 0C3.3579 0 0 3.3579 0 7.5 0 11.6421 3.3579 15 7.5 15 11.6421 15 15 11.6421 15 7.5 15 3.3579 11.6421 0 7.5 0ZM.5 7.5C.5 3.9101 3.9101.5 7.5.5 11.0899.5 14.5 3.9101 14.5 7.5 14.5 9.3496 13.2275 11.5187 11.9875 12.7024 11.8365 10.4086 10.3328 9 8.5 9H6.5C4.6672 9 3.1635 10.4086 3.125 12.7024 1.7725 11.5187.5 9.3496.5 7.5Z" fill="#000000"/>
</svg>